<mxfile host="app.diagrams.net" modified="2020-09-16T08:57:15.020Z" agent="5.0 (Windows)" etag="0o9AXJdkBxYoWss15UQI" version="13.7.1" type="github">
  <diagram id="C5RBs43oDa-KdzZeNtuy" name="Page-1">
    <mxGraphModel dx="1422" dy="791" grid="1" gridSize="10" guides="1" tooltips="1" connect="1" arrows="1" fold="1" page="1" pageScale="1" pageWidth="827" pageHeight="1169" math="0" shadow="0">
      <root>
        <mxCell id="WIyWlLk6GJQsqaUBKTNV-0" />
        <mxCell id="WIyWlLk6GJQsqaUBKTNV-1" parent="WIyWlLk6GJQsqaUBKTNV-0" />
        <mxCell id="5i1VgPBV40TFD0aXEKWm-20" value="" style="edgeStyle=orthogonalEdgeStyle;rounded=0;orthogonalLoop=1;jettySize=auto;html=1;" edge="1" parent="WIyWlLk6GJQsqaUBKTNV-1" source="5i1VgPBV40TFD0aXEKWm-0" target="5i1VgPBV40TFD0aXEKWm-19">
          <mxGeometry relative="1" as="geometry" />
        </mxCell>
        <mxCell id="5i1VgPBV40TFD0aXEKWm-0" value="Start" style="rounded=1;whiteSpace=wrap;html=1;" vertex="1" parent="WIyWlLk6GJQsqaUBKTNV-1">
          <mxGeometry x="354" y="10" width="120" height="60" as="geometry" />
        </mxCell>
        <mxCell id="5i1VgPBV40TFD0aXEKWm-6" value="" style="edgeStyle=orthogonalEdgeStyle;rounded=0;orthogonalLoop=1;jettySize=auto;html=1;" edge="1" parent="WIyWlLk6GJQsqaUBKTNV-1" source="5i1VgPBV40TFD0aXEKWm-3" target="5i1VgPBV40TFD0aXEKWm-5">
          <mxGeometry relative="1" as="geometry" />
        </mxCell>
        <mxCell id="5i1VgPBV40TFD0aXEKWm-9" value="" style="edgeStyle=orthogonalEdgeStyle;rounded=0;orthogonalLoop=1;jettySize=auto;html=1;" edge="1" parent="WIyWlLk6GJQsqaUBKTNV-1" source="5i1VgPBV40TFD0aXEKWm-3" target="5i1VgPBV40TFD0aXEKWm-8">
          <mxGeometry relative="1" as="geometry" />
        </mxCell>
        <mxCell id="5i1VgPBV40TFD0aXEKWm-3" value="If computer says correct" style="rhombus;whiteSpace=wrap;html=1;rounded=1;" vertex="1" parent="WIyWlLk6GJQsqaUBKTNV-1">
          <mxGeometry x="351" y="310" width="126" height="110" as="geometry" />
        </mxCell>
        <mxCell id="5i1VgPBV40TFD0aXEKWm-5" value="End" style="whiteSpace=wrap;html=1;rounded=1;" vertex="1" parent="WIyWlLk6GJQsqaUBKTNV-1">
          <mxGeometry x="130" y="335" width="120" height="60" as="geometry" />
        </mxCell>
        <mxCell id="5i1VgPBV40TFD0aXEKWm-7" value="True" style="text;html=1;align=center;verticalAlign=middle;resizable=0;points=[];autosize=1;" vertex="1" parent="WIyWlLk6GJQsqaUBKTNV-1">
          <mxGeometry x="290" y="335" width="40" height="20" as="geometry" />
        </mxCell>
        <mxCell id="5i1VgPBV40TFD0aXEKWm-23" value="" style="edgeStyle=orthogonalEdgeStyle;rounded=0;orthogonalLoop=1;jettySize=auto;html=1;" edge="1" parent="WIyWlLk6GJQsqaUBKTNV-1" source="5i1VgPBV40TFD0aXEKWm-8" target="5i1VgPBV40TFD0aXEKWm-22">
          <mxGeometry relative="1" as="geometry" />
        </mxCell>
        <mxCell id="5i1VgPBV40TFD0aXEKWm-8" value="If computer returns number is to high" style="rhombus;whiteSpace=wrap;html=1;rounded=1;" vertex="1" parent="WIyWlLk6GJQsqaUBKTNV-1">
          <mxGeometry x="346" y="460" width="136" height="130" as="geometry" />
        </mxCell>
        <mxCell id="5i1VgPBV40TFD0aXEKWm-10" value="false" style="text;html=1;align=center;verticalAlign=middle;resizable=0;points=[];autosize=1;" vertex="1" parent="WIyWlLk6GJQsqaUBKTNV-1">
          <mxGeometry x="340" y="430" width="40" height="20" as="geometry" />
        </mxCell>
        <mxCell id="5i1VgPBV40TFD0aXEKWm-18" value="" style="edgeStyle=orthogonalEdgeStyle;rounded=0;orthogonalLoop=1;jettySize=auto;html=1;" edge="1" parent="WIyWlLk6GJQsqaUBKTNV-1" source="5i1VgPBV40TFD0aXEKWm-16" target="5i1VgPBV40TFD0aXEKWm-3">
          <mxGeometry relative="1" as="geometry" />
        </mxCell>
        <mxCell id="5i1VgPBV40TFD0aXEKWm-16" value="Insert calculated number" style="shape=parallelogram;perimeter=parallelogramPerimeter;whiteSpace=wrap;html=1;fixedSize=1;" vertex="1" parent="WIyWlLk6GJQsqaUBKTNV-1">
          <mxGeometry x="354" y="200" width="120" height="60" as="geometry" />
        </mxCell>
        <mxCell id="5i1VgPBV40TFD0aXEKWm-21" value="" style="edgeStyle=orthogonalEdgeStyle;rounded=0;orthogonalLoop=1;jettySize=auto;html=1;" edge="1" parent="WIyWlLk6GJQsqaUBKTNV-1" source="5i1VgPBV40TFD0aXEKWm-19" target="5i1VgPBV40TFD0aXEKWm-16">
          <mxGeometry relative="1" as="geometry" />
        </mxCell>
        <mxCell id="5i1VgPBV40TFD0aXEKWm-19" value="&amp;nbsp;Calculate: N / 2" style="rounded=0;whiteSpace=wrap;html=1;" vertex="1" parent="WIyWlLk6GJQsqaUBKTNV-1">
          <mxGeometry x="354" y="110" width="120" height="60" as="geometry" />
        </mxCell>
        <mxCell id="5i1VgPBV40TFD0aXEKWm-22" value="calculate your number / 2" style="whiteSpace=wrap;html=1;rounded=1;" vertex="1" parent="WIyWlLk6GJQsqaUBKTNV-1">
          <mxGeometry x="570" y="495" width="120" height="60" as="geometry" />
        </mxCell>
      </root>
    </mxGraphModel>
  </diagram>
</mxfile>
